,
.   http://www.scenetime.com/signup.php  ---&gt;  Hottest scene tracker on the net !!!  

    Join Now   http://www.scenetime.com/signup.php

    seed back for speed


 


  
            
*******************************************************************************
            Cowboys.And.Aliens.2011.EXTENDED.BRRip.XviD.AC3-PRESTiGE
*******************************************************************************

-------------------------------------------------------------------------------
                              General Information
-------------------------------------------------------------------------------

TiTLE............: Cowboys.And.Aliens.2011.EXTENDED.BRRip.XviD.AC3-PRESTiGE

iMDB.............: http://www.imdb.com/title/tt0409847/

GENRE............: Action | Sci-Fi | Thriller 

LANGUAGE.........: English 

FORMAT...........: AVi

SOURCE...........: 720p.BluRay.x264-CROSSBOW MANY THANKS!!!

FiLE SiZE........: 2.17 GB

SAMPLE iNCLUDED..: Yes

SUBS.............: English Subs (If needed)

DURATiON.........: 2h 15mn

ENCODED by.......: [b][color=maroon]akosipalos[/color][/b]


ViDEO iNFO:

ID                               : 0
Format                           : MPEG-4 Visual
Format profile                   : Advanced Simple@L5
Format settings, BVOP            : 2
Format settings, QPel            : No
Format settings, GMC             : No warppoints
Format settings, Matrix          : Default (H.263)
Codec ID                         : XVID
Codec ID/Hint                    : XviD
Duration                         : 2h 15mn
Bit rate                         : 1 844 Kbps
Width                            : 720 pixels
Height                           : 304 pixels
Display aspect ratio             : 2.35:1
Frame rate                       : 23.976 fps
Color space                      : YUV
Chroma subsampling               : 4:2:0
Bit depth                        : 8 bits
Scan type                        : Progressive
Compression mode                 : Lossy
Bits/(Pixel*Frame)               : 0.351
Stream size                      : 1.74 GiB (80%)
Writing library                  : XviD 1.2.1 (UTC 2008-12-04)


AUDiO iNFO:

ID                               : 1
Format                           : AC-3
Format/Info                      : Audio Coding 3
Mode extension                   : CM (complete main)
Codec ID                         : 2000
Duration                         : 2h 15mn
Bit rate mode                    : Constant
Bit rate                         : 448 Kbps
Channel(s)                       : 6 channels
Channel positions                : Front: L C R, Side: L R, LFE
Sampling rate                    : 48.0 KHz
Bit depth                        : 16 bits
Compression mode                 : Lossy
Stream size                      : 433 MiB (20%)
Alignment                        : Split accross interleaves
Interleave, duration             : 500 ms (11.99 video frames)
Interleave, preload duration     : 500 ms


-------------------------------------------------------------------------------
                                 PLOT:
-------------------------------------------------------------------------------


A spaceship arrives in Arizona, 1873, to take over the Earth, starting with the Wild West region. 
A posse of cowboys and natives are all that stand in their way.  

 
-------------------------------------------------------------------------------
                                 CAST:
-------------------------------------------------------------------------------


Daniel Craig 

Harrison Ford 

Olivia Wilde


-------------------------------------------------------------------------------
                               SCREENS:
-------------------------------------------------------------------------------



-------------------------------------------------------------------------------
                             Release Notes
-------------------------------------------------------------------------------

WE DONT RELEASE EVERYTHING TO OTHERS SITES YOU WANT MORE OF OUR STUFF COME FIND US AT .......

WE ARE LOOKING FOR SUPPLIERS BLURAY CAM R5 PRE RETAIL DVD GOT SOMETHING WE MIGHT LIKE WHEN YOU FIND US TELL US.......



ENCODER'S - ANYTHING AT ALL EMAIL US AT..... prestige@hushmail.me

** ** ** ** ** ** ** ** **

PRESTiGE is the level of respect at which one is regarded by others....RIzE Above Or Sink Below...


-------------------------------------------------------------------------------
                                 GREETZ:
-------------------------------------------------------------------------------


[b]| Twisted | Bigguy | CTFX | Whitestag13 | Jungledave | PA4U2C | mtyy | floridajoe | marsby | cld | Stortrapp | Stoner | Rock | Ulap | rizal | mannilim | musikera | centserick2 | AMB | RiZAL Team RG | rock3r | canislupus | sickie | fun2knytz and To All Encoders Past And Present...[/b]



[b][color=red]PRESTiGE[/color] is the level of respect at which one is regarded by others....RIzE Above Or Sink Below...[/b]


-------------------------------------------------------------------------------
Generated with Cool NFO Creator - http://fly.to/coolbeans
-------------------------------------------------------------------------------
[/pre]